<?xml version="1.0" encoding="UTF-8"?> <svg xmlns="http://www.w3.org/2000/svg" width="177" height="46" viewBox="0 0 177 46" fill="none"><g clip-path="url(#clip0_5332_978)"><path d="M0 44.9976V10.841H6.82614V12.6231C7.85929 11.2865 9.4459 10.2098 11.217 10.2098C14.3902 10.2098 16.7148 13.3656 16.7148 16.6328V32.3745C16.7148 35.3446 14.5009 38.0549 11.4384 38.0549C9.5935 38.0549 7.89619 37.0525 6.82614 35.456V45.0347H0V44.9976ZM9.88868 30.9265V17.1525C9.88868 16.3729 9.77799 15.4076 8.74484 15.4076C7.96998 15.4076 7.19512 16.41 6.82614 16.9298V31.3721C7.19512 31.8918 7.93308 32.8571 8.74484 32.8571C9.81488 32.8571 9.88868 31.7805 9.88868 30.9265Z" fill="white"></path><path d="M20.2202 37.4237V0.742554H27.0464V12.7345C28.3009 11.3237 30.2196 10.2099 32.249 10.2099C35.2008 10.2099 36.935 13.3285 36.935 16.0016V37.4237H30.1089V17.7837C30.1089 17.0412 30.2934 15.4076 29.1864 15.4076C28.3009 15.4076 27.4891 16.41 27.0833 16.9298V37.4237H20.2571H20.2202Z" fill="white"></path><path d="M40.625 37.4237V10.8409H47.4511V37.4608H40.625V37.4237Z" fill="white"></path><path d="M51.3623 37.4237V0.742554H58.1884V37.4609H51.3623V37.4237Z" fill="white"></path><path d="M73.0212 37.4237V34.9734C71.5084 37.3495 69.4052 38.0178 67.7817 38.0178C65.3833 38.0178 62.3208 36.8297 62.3208 25.5432V23.4641C62.3208 11.7692 65.3833 10.7667 68.04 10.7667C69.8111 10.7667 71.656 11.7692 73.0212 13.8111V0H76.2683V37.4237H73.0212ZM73.0212 32.9685V15.7789C71.6929 14.2938 70.217 13.18 68.6673 13.18C67.1176 13.18 65.5678 13.6255 65.5678 23.5012V25.5803C65.5678 35.3446 67.1544 35.6045 68.778 35.6045C70.1063 35.6045 71.7298 34.5278 73.0212 32.9685Z" fill="#58595B"></path><path d="M81.7662 25.4318V21.7933C81.84 12.5117 84.8287 10.8038 88.9244 10.8038C93.6104 10.8038 95.4553 14.071 95.4553 21.1251C95.4553 22.2017 95.4553 22.7586 95.4184 23.7982H85.0501V27.7707C85.0501 34.7877 86.4891 35.8272 88.9244 35.8272C90.5848 35.8272 92.319 34.6021 92.3559 29.6271V29.4414H95.3816V29.5899C94.9757 34.0823 93.7949 38.0177 88.9613 38.0177C83.648 38.0177 81.6924 35.2703 81.7662 25.4318ZM85.0501 22.1646H92.2452C92.1714 18.1549 92.688 12.9943 89.072 12.9943C85.087 12.9943 85.0501 16.1501 85.0501 22.1275V22.2017V22.1646Z" fill="#58595B"></path><path d="M98.7393 30.9265L101.211 30.0726C101.949 32.3373 103.684 35.6787 106.303 35.6787C108.665 35.6787 109.735 34.0823 109.735 31.8175C109.735 29.7384 107.447 27.3252 105.307 25.3946L103.425 23.7239C101.101 21.6819 99.1082 19.7142 99.1082 17.004C99.1082 12.9943 101.728 10.8409 105.602 10.8409C109.477 10.8409 111.432 14.071 112.244 17.4495L109.366 18.3405C109.034 16.1872 107.853 13.1799 105.455 13.1799C103.499 13.1799 102.281 14.665 102.281 16.7441C102.281 18.6376 103.72 20.1969 105.529 21.7562L107.595 23.5383C110.104 25.7288 112.724 28.0306 112.797 31.7433C112.797 35.7158 110.03 38.0177 106.193 38.0177C102.134 38.0177 99.6986 34.6763 98.7393 30.8894V30.9265Z" fill="#58595B"></path><path d="M116.856 5.42052V1.52222H120.103V5.42052H116.856ZM116.856 37.4237V11.3608H120.103V37.4237H116.856Z" fill="#58595B"></path><path d="M142.316 10.8781L142.648 10.8039L142.205 14.0339C141.061 14.2566 139.881 15.1477 139.032 16.113C139.512 17.5238 139.844 18.8603 139.844 20.0484C139.844 25.1348 137.741 29.6642 132.317 29.6642C131.136 29.6642 129.844 29.4043 129.217 29.1444C128.737 30.1097 127.741 31.7062 127.741 32.8942C127.741 33.7482 128.59 33.7482 134.826 34.8991C137.962 35.4931 140.951 36.9039 140.951 40.2825C140.951 45.5545 134.752 46 132.132 46C130.14 46 123.387 46.1114 123.387 42.6586C123.387 39.4657 126.155 37.2381 128.479 36.0129C128.258 35.9758 124.752 35.0847 124.752 34.1566C124.752 32.4116 127.225 29.1816 127.852 28.3277C125.675 26.3599 124.826 23.0928 124.826 20.1598C124.826 16.113 126.782 10.7667 132.28 10.7667C135.268 10.7667 136.855 12.4374 138.405 14.8135C139.216 13.3656 140.471 11.2865 142.353 10.841L142.316 10.8781ZM134.457 37.1638L129.844 36.3099C128.553 37.2752 126.819 39.9483 126.819 41.5819C126.819 43.7724 130.103 43.661 132.169 43.661C133.645 43.661 137.851 43.6981 137.851 40.728C137.851 38.6489 136.892 37.6465 134.494 37.1638H134.457ZM132.39 27.251C136.154 27.251 136.597 22.7215 136.597 20.5682C136.597 18.5633 136.154 13.4398 132.39 13.4398C128.627 13.4398 128.147 18.5262 128.147 20.5682C128.147 22.7587 128.59 27.251 132.39 27.251Z" fill="#58595B"></path><path d="M145.415 37.4237V11.3608H148.662V13.8111C150.101 11.6949 152.204 10.7667 154.16 10.7667C156.484 10.7667 158.994 12.7716 158.994 16.9298V37.3866H155.71V16.8555C155.71 14.1081 154.455 13.1428 152.979 13.1428C151.651 13.1428 149.99 14.1453 148.662 15.7788V37.3866H145.415V37.4237Z" fill="#58595B"></path><path d="M162.979 30.9265L165.451 30.0726C166.189 32.3373 167.923 35.6787 170.543 35.6787C172.904 35.6787 173.974 34.0823 173.974 31.8175C173.974 29.7384 171.686 27.3252 169.546 25.3946L167.665 23.7239C165.34 21.6819 163.348 19.7142 163.348 17.004C163.348 12.9943 165.967 10.8409 169.842 10.8409C173.716 10.8409 175.671 14.071 176.483 17.4495L173.605 18.3405C173.273 16.1872 172.092 13.1799 169.694 13.1799C167.738 13.1799 166.521 14.665 166.521 16.7441C166.521 18.6376 167.96 20.1969 169.768 21.7562L171.834 23.5383C174.343 25.7288 176.963 28.0306 177.037 31.7433C177.037 35.7158 174.269 38.0177 170.432 38.0177C166.373 38.0177 163.938 34.6763 162.979 30.8894V30.9265Z" fill="#58595B"></path><path d="M47.4511 2.0791H40.625V8.50202H47.4511V2.0791Z" fill="#F7941D"></path></g><defs><clipPath id="clip0_5332_978"><rect width="177" height="46" fill="white"></rect></clipPath></defs></svg> 